<?xml version="1.0" encoding="UTF-8"?>
<svg width="194px" height="68px" viewBox="0 0 194 68" version="1.1" xmlns="http://www.w3.org/2000/svg" xmlns:xlink="http://www.w3.org/1999/xlink">
    <title>qrl-logo</title>
    <g id="Page-1" stroke="none" stroke-width="1" fill="none" fill-rule="evenodd">
        <g id="qrl-logo" fill="#FFA729" fill-rule="nonzero">
            <path d="M46.3309987,47.833636 C50.485582,47.833636 52.3888987,46.2584453 53.2602608,44.7514832 C54.9375586,41.853251 53.7598814,38.0799128 49.7539947,33.5412278 C47.5354412,31.0286354 44.1897675,27.7417968 41.9176832,26.1072769 C41.7719605,24.698208 41.575681,23.3188037 41.3318186,21.9898293 C41.9801358,21.8296404 42.6165573,21.6931832 43.2291873,21.5834241 C47.017977,20.9159705 49.2067912,21.4647657 49.6915421,22.3042741 C50.0186747,22.8708681 49.7688644,24.0455866 49.0045638,25.528817 C48.3502987,26.8014287 47.7584862,27.5074464 47.5711284,27.7150987 C48.7517795,28.7681923 49.8194212,29.8687492 50.5063996,30.6044315 C50.8543496,30.2365904 51.7405814,29.2131614 52.6714222,27.4095532 C54.1524405,24.5380191 54.351694,22.1292529 53.2632348,20.2485168 C52.1599059,18.3410825 49.4000968,16.3238891 42.5154436,17.5342051 C41.8284652,17.65583 41.1206694,17.8071195 40.4009778,17.9851072 C38.7147582,12.1382129 35.8924965,8 31.9936713,8 C29.7275349,8 26.5216359,9.44466642 24.1097769,16.3594866 C24.0859854,16.4366146 23.4941729,18.2491222 23.0332134,20.2930137 C22.5633321,22.3725027 22.1261641,24.6062477 21.7306311,26.9408524 C20.4815795,27.8337571 19.3039024,28.7503935 18.2094953,29.6818622 C14.9649352,26.3356944 13.5999003,23.4997578 14.2898526,22.3072406 C14.7062031,21.5893571 16.0117594,20.9930984 17.9894243,21.2778787 C19.1284404,21.441034 19.892741,21.6219881 20.2198735,21.7080155 C20.5232146,20.1565565 20.9246954,18.6762925 21.2042451,17.7151592 C20.725442,17.5935343 19.8421841,17.391815 18.5782629,17.2078944 C15.10471,16.709529 12.0950906,17.8753481 10.7211339,20.2514832 C8.77023434,23.6213827 10.9501267,28.1304032 15.1850062,32.5088994 C14.6705159,33.0428623 14.182791,33.5768253 13.7367012,34.1107882 C9.2460635,39.4533842 9.61780503,42.8470154 10.7211339,44.7514832 C11.94342,46.8606369 14.4712625,47.9433951 17.8377538,47.9433951 C20.1128119,47.9433951 22.7744813,47.4479961 25.6681174,46.4393994 C27.0569438,45.9558663 30.3699043,44.620959 31.9341926,43.9831699 C33.456846,44.6832546 34.9646296,45.297312 36.4367261,45.8194091 C35.1490134,50.2898656 33.3706019,52.8884853 31.9906974,52.8884853 C30.8962903,52.8884853 29.5788383,51.2925294 28.5468838,48.7206078 C28.5052488,48.6167817 28.4338744,48.4091294 28.3565521,48.180712 C26.958804,48.7295072 25.5164468,49.1744763 24.4458312,49.4800218 C24.5380231,49.7588691 24.6391368,50.0525487 24.719433,50.2483351 C26.958804,55.828248 29.9089448,57 31.9906974,57 C35.8924965,57 38.7147582,52.8617871 40.3980038,47.0148928 C41.1206694,47.1928805 41.8254913,47.34417 42.5124697,47.4657949 C43.9607747,47.7209105 45.2246959,47.833636 46.3309987,47.833636 Z M27.0509959,21.1977842 C27.4643725,19.361545 28.011576,17.6765952 28.011576,17.6765952 C28.011576,17.6765952 28.011576,17.6765952 28.011576,17.6765952 C29.3528195,13.8350285 30.9765865,12.1144812 31.9906974,12.1144812 C33.3706019,12.1144812 35.1490134,14.7131009 36.4367261,19.1835573 C33.3349147,20.2811478 30.0725111,21.7940429 26.8636382,23.642148 C26.7357591,23.7163095 26.6108539,23.790471 26.4859488,23.8646325 C26.6673586,22.9509626 26.8576903,22.0610243 27.0509959,21.1977842 Z M24.3060564,42.5592687 C18.572315,44.5556968 14.9411438,43.8200145 14.2898526,42.6957259 C13.8051016,41.8562175 14.4207056,39.6936675 16.8950172,36.7509384 C17.2964981,36.2733382 17.7336661,35.7927715 18.1975996,35.3151713 C20.7611292,37.4895871 23.7410093,39.5601768 26.8636382,41.3608185 C26.9409604,41.4053154 27.0212566,41.4498123 27.0985788,41.4943092 C25.9863281,41.9333454 24.9216604,42.3456835 24.3060564,42.5592687 Z M28.9245732,37.8010655 C25.9268495,36.0745853 23.3633199,34.2591113 21.2488541,32.4970335 C23.4763293,30.645962 26.081494,28.8423538 28.9245732,27.2048674 C31.7676524,25.567381 34.6345231,24.2176414 37.3556711,23.2209105 C37.8315003,25.9292893 38.1229457,29.0529725 38.1229457,32.5029665 C38.1229457,35.9529604 37.8315003,39.0796101 37.3556711,41.7850224 C34.6345231,40.7882916 31.7676524,39.4385519 28.9245732,37.8010655 Z M42.2418418,31.7435525 C43.6901468,33.0843928 45.2960703,34.7129798 46.6611052,36.2585059 C49.6707246,39.6669694 50.2000845,41.8206199 49.6915421,42.6957259 C49.2067912,43.5352343 47.017977,44.0810631 43.2291873,43.4165759 C42.6135834,43.3097833 41.9801358,43.1703596 41.3318186,43.0101707 C41.9385007,39.7084998 42.2477897,36.098317 42.2477897,32.5 C42.2448158,32.2508173 42.2448158,31.9957017 42.2418418,31.7435525 Z" id="Shape"></path>
            <path d="M32,28 C29.7943107,28 28,29.7943107 28,32 C28,34.2056893 29.7943107,36 32,36 C34.2056893,36 36,34.2056893 36,32 C36,29.7943107 34.2056893,28 32,28 Z" id="Path"></path>
            <path d="M64,32.1302848 C64,14.3524802 49.5451428,-0.0963894754 31.8186463,-5.68434189e-14 C15.2090096,0.0914869279 1.15177798,13.3250311 0.0700026662,29.9697062 C-0.701858639,41.8763732 4.95261016,52.9640166 14.8874007,59.2872318 L14.8757059,63.9313016 L4.06964761,63.9665285 L4.06964761,56.5777018 L0.0202994761,56.5777018 L0.0202994761,68 L18.9309014,68 L18.9425963,59.2138426 C18.94552,57.8546742 18.2438279,56.5982508 17.06557,55.8496807 C8.92009422,50.6801441 4.05502903,41.8147263 4.05502903,32.1302848 C4.05502903,16.7126775 16.5042163,4.16018529 31.8391123,4.06918265 C46.8640943,3.98111559 59.4360777,16.0932725 59.9331096,31.1703538 C60.2664133,41.224677 55.3545686,50.5098811 46.9401109,55.8496807 C45.761853,56.5982508 45.0601609,57.8546742 45.0630846,59.2138426 L45.0835506,68 L63.9853814,68 L63.9853814,56.5777018 L59.9331096,56.5777018 L59.9681942,63.9313016 L49.1270513,63.9665285 L49.1153564,59.2842962 C58.4332427,53.363254 64,43.2149926 64,32.1302848 Z" id="Path"></path>
            <path d="M104.471847,13 C93.1601735,13 84,22.05114 84,33.4092599 C84,44.7113995 93.1601735,53.8185198 104.471847,53.8185198 C108.6,53.8185198 112.446621,52.5810593 115.667944,50.500947 L120.136899,55 L123.755331,51.7384076 L119.401952,47.410242 C122.851464,43.7567871 125,38.8658716 125,33.4092599 C125,22.05114 115.78352,13 104.471847,13 Z M115.78352,43.7538408 L107.639827,35.6573132 L104.021395,38.8629253 L111.939863,46.7915118 C109.73502,48.0289723 107.189375,48.7036829 104.47481,48.7036829 C95.9932779,48.7036829 89.2068666,42.012557 89.2068666,33.4122062 C89.2068666,24.7529288 95.9932779,18.0618029 104.47481,18.0618029 C112.959306,18.0618029 119.742754,24.7529288 119.742754,33.4122062 C119.742754,37.4575237 118.272859,41.0549982 115.78352,43.7538408 Z" id="Shape"></path>
            <path d="M159.840668,26.4000599 C159.840668,19.5427459 154.165402,14 147.215478,14 L131,14 L131,54 L136.38695,54 L136.38695,38.6863303 L145.943854,38.6863303 L155.036419,54 L161,54 L151.443096,38.0005989 C156.308042,36.2847732 159.840668,31.6553376 159.840668,26.4000599 Z M136.38695,33.8832161 L136.38695,18.970804 L147.215478,18.970804 C151.212443,18.970804 154.453718,22.2856715 154.453718,26.4000599 C154.453718,30.5144483 151.209408,33.8862105 147.215478,33.8862105 L136.38695,33.8862105 L136.38695,33.8832161 Z" id="Shape"></path>
            <polygon id="Path" points="171.170935 48.9693068 171.170935 14 166 14 166 54 188.829065 54 194 54 194 48.9693068"></polygon>
        </g>
    </g>
</svg>